<svg width="35" height="22" viewBox="0 0 35 22" fill="none" xmlns="http://www.w3.org/2000/svg">
<path d="M14.1253 9.83552C14.1253 9.83552 17.4374 9.59147 17.4374 5.73657C17.4374 1.8814 14.7277 0 11.2951 0H0V21.5433H11.2951C11.2951 21.5433 18.1904 21.7594 18.1904 15.1847C18.1904 15.1847 18.491 9.83552 14.1253 9.83552V9.83552ZM10.4821 3.82907H11.2951C11.2951 3.82907 12.8305 3.82907 12.8305 6.07055C12.8305 8.31176 11.9275 8.6367 10.9033 8.6367H4.97678V3.82907H10.4821V3.82907ZM10.9759 17.7143H4.97678V11.9572H11.2951C11.2951 11.9572 13.5835 11.9274 13.5835 14.9157C13.5835 17.4356 11.8743 17.6953 10.9759 17.7143V17.7143ZM27.3864 5.48124C19.039 5.48124 19.0463 13.7588 19.0463 13.7588C19.0463 13.7588 18.4736 21.9939 27.3864 21.9939C27.3864 21.9939 34.8137 22.415 34.8137 16.2652H30.9939C30.9939 16.2652 31.1213 18.5811 27.5138 18.5811C27.5138 18.5811 23.6935 18.8352 23.6935 14.8331H34.9411C34.9411 14.833 36.1717 5.48124 27.3864 5.48124ZM23.6515 11.9572C23.6515 11.9572 24.1179 8.63663 27.4713 8.63663C30.8239 8.63663 30.7819 11.9572 30.7819 11.9572H23.6515ZM31.6717 3.92207H22.7163V1.26917H31.6717V3.92207Z" fill="white"/>
</svg>
