<svg width="509" height="796" viewBox="0 0 509 796" fill="none" xmlns="http://www.w3.org/2000/svg">
<g clip-path="url(#clip0)">
<path opacity="0.35" d="M99.9444 305.591C99.101 302.539 96.7816 294.014 95.4111 282.647C91.5103 248.23 100.893 222.655 105.637 206.762C127.25 134.351 95.6219 114.143 123.033 74.3587C141.272 47.9411 175.324 25.6283 187.343 33.4168C189.135 34.5745 196.796 37.9447 192.614 45.8362C177.5 74.3587 161.463 110.553 165.5 125C184.919 194.5 145 197 160.5 212.5C184 236 162.5 277.147 178 292.647C190.511 305.158 199.646 292.647 205 302C206.265 304.21 212.118 315.379 214.122 326.431C218.022 346.954 214.754 381.16 195.566 389.685C182.81 395.369 168.05 387.58 158.245 382.318C116.18 359.9 102.369 314.222 99.9444 305.591Z" fill="#5064CC"/>
<path opacity="0.7" d="M177.539 44.7837C169.737 48.8884 165.098 54.3614 160.143 60.2553C151.92 69.9383 146.438 86.1466 135.684 118.142C134.314 122.037 132.943 126.352 132.838 132.246C132.627 139.508 134.525 141.192 134.946 150.243C135.052 153.822 135.052 159.505 133.681 165.926C131.994 174.24 129.991 175.924 128.41 182.871C126.934 189.817 127.461 195.185 128.093 201.289C128.093 201.289 131.256 232.233 152.131 262.965C153.923 265.597 155.188 267.491 157.402 271.07C161.092 277.279 162.884 281.805 166.153 286.752C168.788 290.541 171.318 294.33 176.273 296.961C180.174 299.066 183.97 299.487 187.238 299.592C199.467 300.013 211.275 295.487 220.026 291.909C244.695 281.805 253.13 280.121 282.122 266.544C293.824 261.071 298.568 256.229 300.677 253.703C300.888 253.493 301.31 252.967 301.837 252.125C301.837 252.125 308.057 243.284 309.427 230.759C312.063 205.394 297.409 177.713 297.409 177.713C261.564 109.933 282.544 79.0949 248.069 54.6771C229.092 41.1 199.046 33.522 177.539 44.7837Z" fill="white" fill-opacity="0.8"/>
<path opacity="0.35" d="M211.486 36.9952C255.976 44.2574 228.143 136.666 256.398 167.399C292.875 252.756 375.741 212.235 298.252 328.536C287.499 355.9 296.987 366.004 285.179 381.476C271.79 398.947 249.65 398.737 250.388 403.894C251.126 409.472 277.378 412.104 302.048 409.893C464.721 419.997 387.654 122.984 329.353 47.5202C301.099 20.5764 252.392 0.157999 219.604 4.26272C207.585 2.36823 177.96 26.4703 189.241 41.2052C193.353 44.2574 200.416 35.7322 211.486 36.9952Z" fill="#5064CC"/>
<path d="M189.135 214.235C189.873 214.34 195.039 214.761 198.097 211.288C201.576 207.183 199.151 200.974 198.624 199.605C197.148 195.816 194.934 193.29 193.458 192.027" stroke="black" stroke-width="1.5" stroke-miterlimit="10"/>
<path d="M243.641 150.349C242.903 150.454 241.743 150.559 240.373 150.349C237.105 149.717 235.207 147.507 233.836 146.244C229.303 142.244 221.818 142.665 217.601 143.823C209.377 146.139 206.32 153.401 206.109 154.453C206.109 154.664 205.898 155.085 206.215 155.506C206.742 156.453 208.534 156.243 209.272 156.137C212.435 155.822 215.598 156.137 218.655 156.453C221.607 156.664 224.348 156.769 227.3 156.243C228.354 156.032 229.514 155.822 230.99 155.401C233.309 154.664 235.207 153.717 236.472 152.98" stroke="black" stroke-width="1.5" stroke-miterlimit="10"/>
<path d="M223.294 146.77C223.505 147.402 223.715 148.454 223.715 149.717C223.715 150.77 223.715 152.769 222.345 154.453C222.029 154.874 220.763 156.453 218.655 156.558C216.757 156.769 215.176 155.716 214.438 154.98C212.329 152.98 212.118 148.98 214.227 145.297" stroke="black" stroke-width="1.5" stroke-miterlimit="10"/>
<path d="M208.639 145.612C210.115 144.244 212.013 142.771 214.438 141.613C222.556 137.614 230.568 139.087 233.626 139.824" stroke="black" stroke-width="1.5" stroke-miterlimit="10"/>
<path d="M142.115 158.979C142.748 159.4 143.802 159.926 145.173 160.347C147.07 161.084 152.658 162.768 158.562 160.453C160.565 159.716 162.146 158.979 162.357 157.716C162.99 154.664 155.399 150.98 154.661 150.664C153.818 150.243 151.498 149.191 148.968 149.086C146.649 148.98 144.856 149.822 144.013 150.138C141.904 151.085 141.377 152.243 139.374 152.559C138.214 152.769 137.16 152.559 136.422 152.454" stroke="black" stroke-width="1.5" stroke-miterlimit="10"/>
<path d="M147.597 149.086C147.281 149.296 146.754 149.717 146.332 150.454C144.118 153.611 144.856 158.979 147.597 160.768C148.863 161.61 150.233 161.61 150.233 161.61C151.076 161.61 151.814 161.295 152.025 161.189C153.607 160.453 154.45 157.506 153.712 154.032" stroke="black" stroke-width="1.5" stroke-miterlimit="10"/>
<path d="M196.199 125.299C196.515 126.457 197.253 128.036 198.624 128.667C200.732 129.615 203.368 128.036 205.055 127.089C206.215 126.457 216.968 120.774 226.773 120.353C228.881 120.247 230.568 120.458 231.517 120.563" stroke="black" stroke-width="1.5" stroke-miterlimit="10"/>
<path d="M199.889 119.09C203.579 117.195 209.061 114.985 216.019 113.827C224.77 112.459 231.939 113.406 236.577 114.353" stroke="black" stroke-width="1.5" stroke-miterlimit="10"/>
<path d="M158.245 212.446C157.297 212.13 152.552 210.235 151.287 205.815C150.866 204.131 150.971 202.658 151.182 201.71C151.709 197.816 153.712 195.08 154.345 194.238C159.194 187.607 164.149 177.187 165.414 174.135C166.68 171.293 169.737 163.926 169.315 154.243C169.104 149.822 168.788 141.087 162.357 134.351C158.456 130.246 154.134 128.667 153.185 128.246C146.965 126.141 141.588 127.404 139.479 127.931" stroke="black" stroke-width="1.5" stroke-miterlimit="10"/>
<path d="M135.157 120.353C142.01 117.932 147.386 118.142 150.338 118.563C150.971 118.669 156.769 119.511 157.824 122.037C158.667 124.142 158.245 126.036 158.245 126.036" stroke="black" stroke-width="1.5" stroke-miterlimit="10"/>
<path d="M143.064 146.033C144.329 145.612 146.543 145.086 149.179 145.297C154.661 145.823 157.824 149.401 158.456 150.138" stroke="black" stroke-width="1.5" stroke-miterlimit="10"/>
<path d="M158.984 241.705C159.511 240.863 160.46 239.705 161.83 238.653C163.095 237.6 164.044 236.864 165.415 236.653C168.367 236.127 169.843 237.706 173.005 238.232C177.222 238.863 177.644 236.232 182.283 236.022C185.024 235.916 188.819 237.6 196.199 241.179C198.729 242.442 200.627 243.073 201.892 243.494C204.212 244.231 204.739 244.126 205.055 244.652C206.531 246.862 201.471 254.44 194.091 257.913C190.506 259.597 187.554 259.703 182.705 260.018C176.379 260.334 168.999 260.755 163.939 256.335C162.357 254.966 161.092 253.177 158.878 250.125C157.297 247.915 155.61 245.494 156.137 244.862C156.559 244.336 158.035 245.599 162.146 246.652C163.622 247.073 164.677 247.283 166.574 247.599C167.734 247.809 170.159 248.336 172.267 248.546C175.852 248.862 178.593 248.441 180.385 248.23C191.455 246.652 193.88 248.967 201.787 246.757C203.684 246.231 206.742 245.178 210.221 243.073" stroke="black" stroke-width="1.5" stroke-miterlimit="10"/>
<path d="M159.194 206.657C159.405 207.394 160.143 209.078 161.83 210.236C162.673 210.867 163.517 211.183 164.149 211.288" stroke="black" stroke-width="1.5" stroke-miterlimit="10"/>
<path d="M172.689 209.394C173.638 208.552 177.328 205.184 181.65 205.92C183.337 206.236 186.394 207.289 186.5 208.973" stroke="black" stroke-width="1.5" stroke-miterlimit="10"/>
<path d="M177.539 44.7837C169.21 50.4672 163.622 56.1506 160.143 60.2553C152.025 69.833 146.438 86.0414 135.684 118.142C134.314 122.037 132.943 126.352 132.838 132.246C132.627 139.508 134.525 141.192 134.946 150.243C135.052 153.822 135.052 159.505 133.681 165.926C131.994 174.24 129.991 175.924 128.41 182.871C126.934 189.817 127.461 195.185 128.093 201.289C128.093 201.289 131.256 232.233 152.131 262.965C153.923 265.597 155.188 267.491 157.402 271.07C161.092 277.279 162.884 281.805 166.153 286.752C168.788 290.541 171.318 294.33 176.273 296.961C180.174 299.066 183.97 299.487 187.238 299.592C199.467 300.013 211.275 295.487 220.026 291.909C244.695 281.805 253.13 280.121 282.122 266.544C297.092 259.492 300.677 253.598 301.837 252.125C307.741 244.336 309.111 235.811 309.427 230.759" stroke="black" stroke-width="1.5" stroke-miterlimit="10"/>
<path d="M195.039 33.6273C197.886 31.7328 204.211 28.2595 211.064 29.8383C217.811 31.417 222.661 37.4162 227.3 47.6254C237.315 69.833 233.836 85.9361 235.839 107.407C238.37 136.245 249.018 157.4 253.235 165.61C260.193 179.292 275.902 209.814 306.264 220.971C310.692 222.55 314.277 222.55 319.337 225.602C334.519 234.653 338.736 253.388 341.477 265.491C343.48 274.122 345.378 288.12 342.742 305.486" stroke="black" stroke-width="1.5" stroke-miterlimit="10"/>
<path d="M159.3 380.213C153.29 376.95 144.856 371.688 136.211 363.689C122.084 350.533 115.126 336.956 109.433 325.694C102.791 312.433 94.884 296.75 92.4592 275.174C88.9801 244.968 98.1522 220.339 104.583 206.868C109.644 187.502 111.436 171.399 112.279 160.347C114.177 134.456 110.803 124.668 115.126 100.566C117.656 86.1466 119.554 75.4112 126.512 64.1495C139.901 42.1525 163.201 33.101 176.273 29.4173C179.542 28.4701 185.446 27.9438 187.659 30.996C189.768 34.0483 187.659 40.0475 186.078 40.0475C184.602 40.1527 182.81 35.206 182.81 30.996C182.81 28.4701 183.548 24.0496 188.925 18.0504C199.362 6.36771 214.649 3.10499 216.441 2.68399C226.457 0.579005 239.002 0.789504 262.618 9.52519C285.074 17.9451 306.37 25.8388 326.19 45.9414C345.483 65.4125 352.441 85.3046 364.249 119.09C372.894 143.823 376.373 161.61 382.91 195.922C392.82 248.23 397.775 274.964 395.456 305.065C393.031 336.219 390.395 365.057 367.939 385.896C350.86 401.789 330.091 405.999 318.178 407.367" stroke="black" stroke-width="1.5" stroke-miterlimit="10"/>
<path d="M189.135 214.235C189.873 214.34 195.039 214.761 198.097 211.288C201.576 207.183 199.151 200.974 198.624 199.605C197.148 195.816 194.934 193.29 193.458 192.027" stroke="black" stroke-width="1.5" stroke-miterlimit="10"/>
<path d="M243.641 150.349C242.903 150.454 241.743 150.559 240.373 150.349C237.105 149.717 235.207 147.507 233.836 146.244C229.303 142.244 221.818 142.665 217.601 143.823C209.377 146.139 206.32 153.401 206.109 154.453C206.109 154.664 205.898 155.085 206.215 155.506C206.742 156.453 208.534 156.243 209.272 156.137C212.435 155.822 215.598 156.137 218.655 156.453C221.607 156.664 224.348 156.769 227.3 156.243C228.354 156.032 229.514 155.822 230.99 155.401C233.309 154.664 235.207 153.717 236.472 152.98" stroke="black" stroke-width="1.5" stroke-miterlimit="10"/>
<path d="M223.294 146.77C223.505 147.402 223.715 148.454 223.715 149.717C223.715 150.77 223.715 152.769 222.345 154.453C222.029 154.874 220.763 156.453 218.655 156.558C216.757 156.769 215.176 155.716 214.438 154.98C212.329 152.98 212.118 148.98 214.227 145.297" stroke="black" stroke-width="1.5" stroke-miterlimit="10"/>
<path d="M208.639 145.612C210.115 144.244 212.013 142.771 214.438 141.613C222.556 137.614 230.568 139.087 233.626 139.824" stroke="black" stroke-width="1.5" stroke-miterlimit="10"/>
<path d="M142.115 158.979C142.748 159.4 143.802 159.926 145.173 160.347C147.07 161.084 152.658 162.768 158.562 160.453C160.565 159.716 162.146 158.979 162.357 157.716C162.99 154.664 155.399 150.98 154.661 150.664C153.818 150.243 151.498 149.191 148.968 149.086C146.649 148.98 144.856 149.822 144.013 150.138C141.904 151.085 141.377 152.243 139.374 152.559C138.214 152.769 137.16 152.559 136.422 152.454" stroke="black" stroke-width="1.5" stroke-miterlimit="10"/>
<path d="M147.597 149.086C147.281 149.296 146.754 149.717 146.332 150.454C144.118 153.611 144.856 158.979 147.597 160.768C148.863 161.61 150.233 161.61 150.233 161.61C151.076 161.61 151.814 161.295 152.025 161.189C153.607 160.453 154.45 157.506 153.712 154.032" stroke="black" stroke-width="1.5" stroke-miterlimit="10"/>
<path d="M196.199 125.299C196.515 126.457 197.253 128.036 198.624 128.667C200.732 129.615 203.368 128.036 205.055 127.089C206.215 126.457 216.968 120.774 226.773 120.353C228.881 120.247 230.568 120.458 231.517 120.563" stroke="black" stroke-width="1.5" stroke-miterlimit="10"/>
<path d="M199.889 119.09C203.579 117.195 209.061 114.985 216.019 113.827C224.77 112.459 231.939 113.406 236.577 114.353" stroke="black" stroke-width="1.5" stroke-miterlimit="10"/>
<path d="M158.245 212.446C157.297 212.13 152.552 210.235 151.287 205.815C150.866 204.131 150.971 202.658 151.182 201.71C151.709 197.816 153.712 195.08 154.345 194.238C159.194 187.607 164.149 177.187 165.414 174.135C166.68 171.293 169.737 163.926 169.315 154.243C169.104 149.822 168.788 141.087 162.357 134.351C158.456 130.246 154.134 128.667 153.185 128.246C146.965 126.141 141.588 127.404 139.479 127.931" stroke="black" stroke-width="1.5" stroke-miterlimit="10"/>
<path d="M135.157 120.353C142.01 117.932 147.386 118.142 150.338 118.563C150.971 118.669 156.769 119.511 157.824 122.037C158.667 124.142 158.245 126.036 158.245 126.036" stroke="black" stroke-width="1.5" stroke-miterlimit="10"/>
<path d="M143.064 146.033C144.329 145.612 146.543 145.086 149.179 145.297C154.661 145.823 157.824 149.401 158.456 150.138" stroke="black" stroke-width="1.5" stroke-miterlimit="10"/>
<path d="M158.984 241.705C159.511 240.863 160.46 239.705 161.83 238.653C163.095 237.6 164.044 236.864 165.415 236.653C168.367 236.127 169.843 237.706 173.005 238.232C177.222 238.863 177.644 236.232 182.283 236.022C185.024 235.916 188.819 237.6 196.199 241.179C198.729 242.442 200.627 243.073 201.892 243.494C204.212 244.231 204.739 244.126 205.055 244.652C206.531 246.862 201.47 254.44 194.091 257.913C190.506 259.597 187.554 259.703 182.705 260.018C176.379 260.334 168.999 260.755 163.939 256.335C162.357 254.966 161.092 253.177 158.878 250.125C157.297 247.915 155.61 245.494 156.137 244.862C156.559 244.336 158.035 245.599 162.146 246.652C163.622 247.073 164.677 247.283 166.574 247.599C167.734 247.809 170.159 248.336 172.267 248.546C175.852 248.862 178.593 248.441 180.385 248.23C191.455 246.652 193.88 248.967 201.787 246.757C203.684 246.231 206.742 245.178 210.221 243.073" stroke="black" stroke-width="1.5" stroke-miterlimit="10"/>
<path d="M159.194 206.657C159.405 207.394 160.143 209.078 161.83 210.236C162.673 210.867 163.517 211.183 164.149 211.288" stroke="black" stroke-width="1.5" stroke-miterlimit="10"/>
<path d="M172.689 209.394C173.638 208.552 177.328 205.184 181.65 205.92C183.337 206.236 186.394 207.289 186.5 208.973" stroke="black" stroke-width="1.5" stroke-miterlimit="10"/>
<path d="M201.576 297.803C203.895 303.381 207.058 311.801 209.694 322.115C213.594 337.587 216.019 347.27 213.7 357.795C209.904 375.056 195.25 385.686 187.765 390.317" stroke="black" stroke-width="1.5" stroke-miterlimit="10"/>
<path d="M309.955 282.015C298.463 304.96 294.457 324.957 293.508 340.85C292.559 357.584 295.195 365.583 290.451 375.372C285.179 386.423 271.052 398.947 230.885 403.263" stroke="black" stroke-width="1.5" stroke-miterlimit="10"/>
<path d="M93.3026 341.376C72.639 349.901 61.6746 362.321 56.4033 369.688C54.5056 372.319 49.2343 379.371 41.6435 398.842C26.1458 438.732 22.8776 473.569 13.7055 492.514C10.7535 498.618 8.32872 504.828 5.16592 510.827C2.00312 516.721 0.632568 518.405 0.632568 521.352C0.632568 523.773 1.47598 530.088 15.814 538.718C34.6854 550.085 57.563 553.874 74.4312 555.137" stroke="black" stroke-width="1.5" stroke-miterlimit="10"/>
<path d="M100.841 472C101.162 481.279 100.948 492.971 99.4524 506.24C97.4225 523.22 95.82 525.818 94.3243 541.871C93.256 554.027 91.974 567.852 94.3243 584.647C94.9653 589.472 95.9269 595.782 97.9567 604.226C105.969 636.795 120.819 664.725 127.977 681.984C135.135 699.336 142.507 724.76 141.973 759" stroke="black" stroke-width="1.5" stroke-miterlimit="10"/>
<path d="M403.468 333.272C416.225 338.113 435.412 347.481 452.913 365.583C458.501 371.477 483.065 397.895 489.496 436.627C492.343 453.782 489.812 461.781 495.505 485.252C497.93 495.25 500.039 505.354 502.78 515.248C507.208 531.561 509.106 535.561 507.208 541.139C505.416 546.612 497.087 551.138 480.851 559.979C461.347 570.714 458.184 574.293 450.277 574.503C447.747 574.608 439.313 574.819 431.511 569.872C411.691 557.453 412.535 522.72 417.068 521.352C419.809 520.51 425.713 531.246 428.243 536.929C439.629 562.715 426.029 586.817 419.493 618.182C415.908 635.232 413.484 659.65 418.649 690.909" stroke="black" stroke-width="1.5" stroke-miterlimit="10"/>
<path d="M492.343 571.451C492.87 596.921 494.662 617.34 496.138 631.232C497.087 640.389 498.036 647.546 503.307 686.699C503.729 690.172 508.051 722.063 508.473 725.536" stroke="black" stroke-width="1.5" stroke-miterlimit="10"/>
<path d="M8.53955 656.913C10.2264 644.81 11.9132 632.495 13.4946 619.866C15.9194 600.394 17.9225 581.239 19.7148 562.61" stroke="black" stroke-width="1.5" stroke-miterlimit="10"/>
<path opacity="0.35" d="M218.233 155.769C221.261 155.769 223.715 152.706 223.715 148.928C223.715 145.149 221.261 142.086 218.233 142.086C215.205 142.086 212.751 145.149 212.751 148.928C212.751 152.706 215.205 155.769 218.233 155.769Z" fill="#5064CC"/>
<path opacity="0.35" d="M149.495 161.137C152.523 161.137 154.977 158.074 154.977 154.295C154.977 150.517 152.523 147.454 149.495 147.454C146.467 147.454 144.013 150.517 144.013 154.295C144.013 158.074 146.467 161.137 149.495 161.137Z" fill="#5064CC"/>
</g>
<defs>
<clipPath id="clip0">
<rect width="509" height="796" fill="white"/>
</clipPath>
</defs>
</svg>
