<svg xmlns="http://www.w3.org/2000/svg" viewBox="0 0 828 171"><g id="Layer_2" data-name="Layer 2"><g id="Layer_1-2" data-name="Layer 1"><path d="M72,27A72,72,0,0,0,0,99v72H36V99a36,36,0,0,1,72,0h36A72,72,0,0,0,72,27Z"/><rect x="108" y="135" width="36" height="36"/><path d="M274.17,117a36,36,0,1,1,0-36h38.56a72,72,0,1,0,0,36Z"/><path d="M414,27a71.63,71.63,0,0,0-36,9.66V0H342V171h36V99a36,36,0,0,1,72,0v72h36V99A72,72,0,0,0,414,27Z"/><path d="M630,113h25.63a72.38,72.38,0,0,0-.9-32c-.27-1.07-.58-2.12-.9-3.17-.1-.34-.22-.68-.33-1-.23-.71-.46-1.41-.72-2.11-.13-.39-.28-.78-.43-1.16-.24-.65-.5-1.29-.76-1.93l-.48-1.15c-.28-.65-.58-1.3-.88-1.94-.16-.35-.32-.7-.49-1-.37-.76-.75-1.5-1.15-2.24l-.33-.65c-.52-1-1-1.88-1.61-2.8-.15-.24-.31-.48-.46-.73-.42-.67-.84-1.34-1.28-2-.22-.33-.44-.65-.67-1-.39-.57-.79-1.13-1.2-1.69l-.74-1c-.41-.55-.84-1.08-1.27-1.62l-.75-.93c-.49-.57-1-1.13-1.48-1.69-.21-.25-.42-.5-.64-.74-.72-.78-1.46-1.56-2.22-2.32l-.31-.3q-1-1-2-1.92l-.82-.72c-.53-.48-1.07-.94-1.61-1.4l-1-.78c-.53-.42-1.06-.85-1.61-1.26l-1-.74q-.87-.63-1.74-1.23l-.91-.63c-.77-.51-1.54-1-2.32-1.49l-.4-.25c-.92-.56-1.85-1.09-2.8-1.61-.28-.16-.57-.3-.85-.45-.68-.36-1.36-.71-2-1l-1.08-.52-1.91-.86-1.15-.48c-.65-.27-1.3-.53-2-.78l-1.11-.42c-.76-.27-1.53-.52-2.29-.77l-.83-.27c-1-.33-2.11-.63-3.18-.91l-.7-.16c-.84-.21-1.69-.41-2.54-.59l-1.15-.22q-1.08-.21-2.16-.39l-1.27-.19c-.71-.1-1.42-.19-2.14-.27l-1.26-.14c-.77-.07-1.55-.12-2.32-.17-.37,0-.73-.06-1.1-.07C587.3,27,586.16,27,585,27s-2.3,0-3.45.09c-.37,0-.73,0-1.1.07-.77.05-1.55.1-2.32.17l-1.26.14c-.72.08-1.43.17-2.14.27l-1.27.19q-1.08.18-2.16.39l-1.15.22c-.85.18-1.7.38-2.54.59l-.7.16c-1.07.28-2.13.58-3.18.91l-.83.27c-.76.25-1.53.5-2.29.77l-1.11.42c-.66.25-1.31.51-2,.78l-1.15.48-1.91.86-1.08.52c-.68.33-1.36.68-2,1-.28.15-.57.29-.85.45-1,.52-1.88,1.05-2.8,1.61l-.4.25c-.78.48-1.55,1-2.32,1.49l-.91.63q-.87.6-1.74,1.23l-1,.74c-.55.41-1.08.84-1.61,1.26l-1,.78c-.54.46-1.08.92-1.61,1.4l-.82.72q-1,.95-2,1.92l-.31.3c-.76.76-1.5,1.54-2.22,2.32-.22.24-.43.49-.64.74-.5.56-1,1.12-1.48,1.69l-.75.93c-.43.54-.86,1.07-1.27,1.62l-.74,1c-.41.56-.81,1.12-1.2,1.69-.23.32-.45.64-.67,1-.44.65-.86,1.32-1.28,2-.15.25-.31.49-.46.73-.56.92-1.09,1.85-1.61,2.8l-.33.65c-.4.74-.78,1.48-1.15,2.24-.17.34-.33.69-.49,1-.3.64-.6,1.29-.88,1.94l-.48,1.15c-.26.64-.52,1.28-.76,1.93-.15.38-.3.77-.43,1.16-.26.7-.49,1.4-.72,2.11-.11.34-.23.68-.33,1-.32,1-.63,2.1-.9,3.17a72.5,72.5,0,0,0,0,36c.27,1.07.58,2.12.9,3.17.1.34.22.68.33,1,.23.71.46,1.41.72,2.11.13.39.28.77.43,1.16.24.65.49,1.29.76,1.93l.48,1.16c.28.64.58,1.29.88,1.93.16.35.32.7.49,1,.37.76.75,1.5,1.15,2.24l.33.65c.52,1,1,1.88,1.61,2.8.15.24.31.48.46.73.42.67.84,1.34,1.28,2,.22.33.44.65.67,1,.39.57.79,1.13,1.2,1.69l.74,1c.42.55.84,1.08,1.27,1.62l.75.93c.49.57,1,1.14,1.48,1.7.21.24.42.49.64.73.72.78,1.46,1.56,2.21,2.32l.33.31c.65.65,1.32,1.28,2,1.91l.82.72c.53.48,1.07.94,1.61,1.4l1,.78c.53.42,1.06.85,1.6,1.26l1,.74q.87.63,1.74,1.23l.91.63c.77.51,1.54,1,2.33,1.49l.39.25c.92.56,1.85,1.09,2.8,1.61.28.16.57.3.86.45.67.36,1.35.71,2,1l1.09.52,1.9.86,1.15.48c.65.27,1.3.53,2,.78l1.11.42c.76.27,1.52.52,2.29.77.28.09.55.19.83.27,1,.33,2.11.63,3.18.91l.7.16c.84.21,1.69.41,2.54.59l1.15.22,2.16.39,1.27.19c.71.1,1.42.19,2.14.27l1.26.14c.77.07,1.55.12,2.32.17.37,0,.73.06,1.1.07,1.15.06,2.29.09,3.45.09s2.3,0,3.45-.09c.37,0,.73,0,1.1-.07.77-.05,1.55-.1,2.32-.17l1.26-.14c.72-.08,1.43-.17,2.14-.27l1.27-.19,2.16-.39,1.15-.22c.85-.18,1.7-.38,2.54-.59l.7-.16c1.07-.28,2.13-.58,3.18-.91.28-.08.55-.18.83-.27.77-.25,1.53-.5,2.29-.77l1.11-.42c.66-.25,1.31-.51,2-.78l1.15-.48,1.9-.86,1.09-.52c.68-.33,1.36-.68,2-1,.29-.15.58-.29.86-.45,1-.52,1.88-1.05,2.8-1.61l.39-.25c.79-.48,1.56-1,2.33-1.49l.91-.63q.87-.6,1.74-1.23l1-.74c.54-.41,1.07-.84,1.6-1.26l1-.78c.54-.46,1.08-.92,1.61-1.4l.82-.72c.68-.63,1.35-1.26,2-1.91l.33-.31c.75-.76,1.49-1.54,2.21-2.32.22-.24.43-.49.64-.73.5-.56,1-1.13,1.48-1.7l.75-.93c.43-.54.85-1.07,1.27-1.62l.74-1c.41-.56.81-1.12,1.2-1.69.23-.32.45-.64.67-1,.44-.65.86-1.32,1.28-2,.15-.25.31-.49.46-.73.56-.92,1.09-1.85,1.61-2.8l.33-.65c.4-.74.78-1.48,1.15-2.24.17-.34.33-.69.49-1,.3-.64.6-1.29.88-1.93l.48-1.16c.06-.13.1-.26.16-.39h-43c-.53.47-1.07.92-1.63,1.35l-.15.12a37.64,37.64,0,0,1-3.7,2.52l-.23.13c-.55.32-1.11.63-1.69.92l-.35.18a34.9,34.9,0,0,1-4,1.71l-.45.16c-.54.18-1.09.35-1.64.51l-.54.15c-.69.19-1.39.36-2.09.51h0c-.71.15-1.43.27-2.16.37l-.61.08c-.54.07-1.09.12-1.65.17l-.64,0c-.74.05-1.48.08-2.23.08s-1.49,0-2.23-.08l-.64,0c-.56,0-1.11-.1-1.65-.17l-.61-.08c-.73-.1-1.45-.22-2.16-.37h0c-.7-.15-1.4-.32-2.09-.51l-.54-.15c-.55-.16-1.1-.33-1.64-.51l-.45-.16a34.9,34.9,0,0,1-4-1.71l-.35-.18c-.58-.29-1.14-.6-1.69-.92l-.23-.13a37.64,37.64,0,0,1-3.7-2.52l-.15-.12c-.58-.45-1.14-.92-1.69-1.4h0a35.71,35.71,0,0,1-3.24-3.27l0,0a35.69,35.69,0,0,1-4-5.64,33.85,33.85,0,0,1-2-4H630ZM557.86,75.36l0,0a35.71,35.71,0,0,1,3.24-3.27h0c.55-.48,1.11-1,1.69-1.4l.15-.12a37.64,37.64,0,0,1,3.7-2.52l.23-.13c.55-.32,1.11-.63,1.69-.92l.35-.18a34.9,34.9,0,0,1,4-1.71l.45-.16c.54-.18,1.09-.35,1.64-.51l.54-.15c.69-.19,1.39-.36,2.09-.51h0c.71-.15,1.43-.27,2.16-.37l.61-.08c.54-.07,1.09-.12,1.65-.17l.64,0c.74,0,1.48-.08,2.23-.08s1.49,0,2.23.08l.64,0c.56.05,1.11.1,1.65.17l.61.08c.73.1,1.45.22,2.16.37h0c.7.15,1.4.32,2.09.51l.54.15c.55.16,1.1.33,1.64.51l.45.16a34.9,34.9,0,0,1,4,1.71l.35.18c.58.29,1.14.6,1.69.92l.23.13a37.64,37.64,0,0,1,3.7,2.52l.15.12c.58.45,1.14.92,1.69,1.4h0a35.71,35.71,0,0,1,3.24,3.27l0,0c.46.53.9,1.08,1.34,1.64h-57C557,76.44,557.4,75.89,557.86,75.36Z"/><path d="M756,27a72,72,0,0,0-72,72v72h36V99a36,36,0,0,1,72,0v72h36V99A72,72,0,0,0,756,27Z"/></g></g></svg>