<svg width="70" height="15" viewBox="0 0 70 15" fill="none" xmlns="http://www.w3.org/2000/svg">
<path d="M6.08696 2.36816C2.72645 2.36816 0 5.19711 0 8.68395V14.9997H3.04348V14.1445V8.68395C3.04348 6.94053 4.4067 5.52606 6.08696 5.52606C7.76721 5.52606 9.13043 6.94053 9.13043 8.68395H12.1739C12.1739 5.19711 9.44746 2.36816 6.08696 2.36816Z" fill="white"/>
<path d="M12.1739 11.8418H9.13037V14.9997H12.1739V11.8418Z" fill="white"/>
<path d="M20.5435 5.52606C21.6848 5.52606 22.6676 6.15106 23.1748 7.10501H26.4402C25.7745 4.37474 23.3651 2.36816 20.5435 2.36816C17.183 2.36816 14.4565 5.19711 14.4565 8.68395C14.4565 12.1708 17.183 14.9997 20.5435 14.9997C23.3651 14.9997 25.7745 12.9932 26.4402 10.2629H23.1748C22.6359 11.2168 21.6531 11.8418 20.5435 11.8418C18.8632 11.8418 17.5 10.4274 17.5 8.68395C17.5 6.94053 18.8632 5.52606 20.5435 5.52606Z" fill="white"/>
<path d="M35 2.36842C33.8904 2.36842 32.8442 2.66447 31.9566 3.22368V0H28.9131V8.68421V15H31.9566V8.68421C31.9566 6.94079 33.3198 5.52632 35 5.52632C36.6803 5.52632 38.0435 6.94079 38.0435 8.68421V14.1447V15H41.087V8.68421C41.087 5.19737 38.3605 2.36842 35 2.36842Z" fill="white"/>
<path d="M55.2898 6.84216C55.2898 6.80926 55.2581 6.77637 55.2581 6.74347C55.2264 6.67768 55.2264 6.61189 55.1947 6.5461C55.1947 6.51321 55.163 6.48031 55.163 6.44742C55.1313 6.38163 55.1313 6.34874 55.0996 6.28295C55.0996 6.25005 55.0679 6.21716 55.0679 6.18426C55.0362 6.11847 55.0045 6.08558 55.0045 6.01979C55.0045 5.98689 54.9727 5.954 54.9727 5.9211C54.941 5.85531 54.9093 5.78953 54.8776 5.72374C54.8776 5.69084 54.8459 5.69084 54.8459 5.65795C54.8142 5.55926 54.7508 5.49347 54.7191 5.42768C54.7191 5.39479 54.6874 5.39479 54.6874 5.36189C54.6557 5.2961 54.624 5.23031 54.5923 5.19742C54.5606 5.16453 54.5606 5.13163 54.5289 5.09874C54.4972 5.03295 54.4655 5.00005 54.4338 4.93426C54.4021 4.90137 54.4021 4.86847 54.3704 4.83558C54.3387 4.80268 54.307 4.73689 54.2753 4.704C54.2436 4.6711 54.2436 4.63821 54.2119 4.63821C54.1802 4.57242 54.1168 4.53953 54.0851 4.47374C54.0534 4.44084 54.0534 4.44084 54.0217 4.40795C53.9583 4.34216 53.8949 4.27637 53.8314 4.21058L53.7997 4.17768C53.7363 4.11189 53.6729 4.079 53.6412 4.01321C53.6095 3.98031 53.6095 3.98031 53.5778 3.94742C53.5461 3.91453 53.4827 3.84874 53.451 3.81584C53.4193 3.78295 53.3876 3.78295 53.3559 3.75005C53.3242 3.71716 53.2608 3.68426 53.2291 3.65137C53.1974 3.61847 53.1657 3.61847 53.134 3.58558C53.0706 3.55268 53.0389 3.51979 52.9755 3.48689C52.9438 3.454 52.9121 3.454 52.9121 3.4211C52.8487 3.38821 52.7853 3.32242 52.7218 3.28953C52.7218 3.28953 52.6901 3.28952 52.6901 3.25663C52.6267 3.22374 52.5316 3.15795 52.4682 3.12505C52.4365 3.12505 52.4048 3.09216 52.4048 3.09216C52.3414 3.05926 52.278 3.02637 52.2463 2.99347C52.2146 2.99347 52.1829 2.96058 52.1512 2.96058C52.0878 2.92768 52.0561 2.89479 51.9927 2.89479C51.961 2.89479 51.9293 2.86189 51.8976 2.86189C51.8342 2.829 51.8025 2.829 51.7391 2.7961C51.7074 2.7961 51.6756 2.76321 51.6439 2.76321C51.5805 2.73031 51.5171 2.73031 51.4537 2.69742C51.422 2.69742 51.422 2.69742 51.3903 2.66453C51.2952 2.63163 51.2001 2.59874 51.1367 2.59874C51.105 2.59874 51.105 2.59874 51.0733 2.59874C51.0099 2.56584 50.9465 2.56584 50.8514 2.53295C50.8197 2.53295 50.788 2.53295 50.7563 2.50005C50.6929 2.50005 50.6295 2.46716 50.5661 2.46716C50.5343 2.46716 50.5026 2.46716 50.4709 2.43426C50.4075 2.43426 50.3441 2.40137 50.2807 2.40137C50.249 2.40137 50.2173 2.40137 50.1856 2.40137C50.1222 2.40137 50.0588 2.40137 49.9954 2.40137C49.9637 2.40137 49.932 2.40137 49.9003 2.40137C49.8052 2.40137 49.7101 2.40137 49.615 2.40137C49.5199 2.40137 49.4247 2.40137 49.3296 2.40137C49.2979 2.40137 49.2662 2.40137 49.2345 2.40137C49.1711 2.40137 49.1077 2.40137 49.0443 2.40137C49.0126 2.40137 48.9809 2.40137 48.9492 2.40137C48.8858 2.40137 48.8224 2.40137 48.759 2.43426C48.7273 2.43426 48.6956 2.43426 48.6639 2.46716C48.6005 2.46716 48.5371 2.50005 48.4737 2.50005C48.442 2.50005 48.4103 2.50005 48.3786 2.53295C48.3151 2.53295 48.22 2.56584 48.1566 2.59874C48.1249 2.59874 48.1249 2.59874 48.0932 2.59874C47.9981 2.63163 47.903 2.66453 47.8396 2.66453C47.8079 2.66453 47.8079 2.66452 47.7762 2.69742C47.7128 2.73031 47.6494 2.73031 47.586 2.76321C47.5543 2.76321 47.5226 2.7961 47.4909 2.7961C47.4275 2.829 47.3641 2.829 47.3324 2.86189C47.3007 2.86189 47.2689 2.89479 47.2372 2.89479C47.1738 2.92768 47.1421 2.96058 47.0787 2.96058C47.047 2.96058 47.0153 2.99347 46.9836 2.99347C46.9202 3.02637 46.8568 3.05926 46.8251 3.09216C46.7934 3.09216 46.7617 3.12505 46.7617 3.12505C46.6666 3.15795 46.6032 3.22374 46.5398 3.25663C46.5398 3.25663 46.5081 3.25663 46.5081 3.28953C46.4447 3.32242 46.3813 3.38821 46.3179 3.4211C46.2862 3.454 46.2545 3.454 46.2545 3.48689C46.191 3.51979 46.1593 3.55268 46.0959 3.58558C46.0642 3.61847 46.0325 3.61847 46.0008 3.65137C45.9691 3.68426 45.9057 3.71716 45.874 3.75005C45.8423 3.78295 45.8106 3.78295 45.7789 3.81584C45.7472 3.84874 45.6838 3.88163 45.6521 3.94742C45.6204 3.98031 45.6204 3.98031 45.5887 4.01321C45.5253 4.079 45.4619 4.11189 45.4302 4.17768L45.3985 4.21058C45.3351 4.27637 45.2717 4.34216 45.2083 4.40795C45.1766 4.44084 45.1766 4.44084 45.1449 4.47374C45.1132 4.50663 45.0497 4.57242 45.018 4.63821C44.9863 4.6711 44.9863 4.704 44.9546 4.704C44.9229 4.73689 44.8912 4.80268 44.8595 4.83558C44.8278 4.86847 44.8278 4.90137 44.7961 4.93426C44.7644 4.96716 44.7327 5.03295 44.701 5.09874C44.6693 5.13163 44.6693 5.16453 44.6376 5.19742C44.6059 5.26321 44.5742 5.329 44.5425 5.36189C44.5425 5.39479 44.5108 5.39479 44.5108 5.42768C44.4791 5.49347 44.4157 5.59216 44.384 5.65795C44.384 5.69084 44.3523 5.69084 44.3523 5.72374C44.3206 5.78953 44.2889 5.85531 44.2572 5.9211C44.2572 5.954 44.2255 5.98689 44.2255 6.01979C44.1938 6.08558 44.1621 6.11847 44.1621 6.18426C44.1621 6.21716 44.1304 6.25005 44.1304 6.28295C44.0987 6.34874 44.0987 6.38163 44.067 6.44742C44.067 6.48031 44.0353 6.51321 44.0353 6.5461C44.0035 6.61189 44.0036 6.67768 43.9718 6.74347C43.9718 6.77637 43.9401 6.80926 43.9401 6.84216C43.9084 6.94084 43.8767 7.03953 43.8767 7.10532C43.7499 7.59874 43.6865 8.12505 43.6865 8.68426C43.6865 9.24347 43.7499 9.76979 43.8767 10.2632C43.9084 10.3619 43.9401 10.4606 43.9401 10.5264C43.9401 10.5593 43.9718 10.5922 43.9718 10.6251C44.0036 10.6908 44.0035 10.7566 44.0353 10.8224C44.0353 10.8553 44.067 10.8882 44.067 10.9211C44.0987 10.9869 44.0987 11.0198 44.1304 11.0856C44.1304 11.1185 44.1621 11.1514 44.1621 11.1843C44.1938 11.2501 44.2255 11.2829 44.2255 11.3487C44.2255 11.3816 44.2572 11.4145 44.2572 11.4474C44.2889 11.5132 44.3206 11.579 44.3523 11.6448C44.3523 11.6777 44.384 11.6777 44.384 11.7106C44.4157 11.8093 44.4791 11.8751 44.5108 11.9408C44.5108 11.9737 44.5425 11.9737 44.5425 12.0066C44.5742 12.0724 44.6059 12.1382 44.6376 12.1711C44.6693 12.204 44.6693 12.2369 44.701 12.2698C44.7327 12.3356 44.7644 12.3685 44.7961 12.4014C44.8278 12.4343 44.8278 12.4672 44.8595 12.5001C44.8912 12.5329 44.9229 12.5987 44.9546 12.6316C44.9863 12.6645 44.9863 12.6974 45.018 12.6974C45.0497 12.7632 45.1132 12.7961 45.1449 12.8619C45.1766 12.8948 45.1766 12.8948 45.2083 12.9277C45.2717 12.9935 45.3351 13.0593 45.3985 13.1251L45.4302 13.1579C45.4936 13.2237 45.557 13.2566 45.5887 13.3224C45.6204 13.3553 45.6204 13.3553 45.6521 13.3882C45.6838 13.4211 45.7472 13.4869 45.7789 13.5198C45.8106 13.5527 45.8423 13.5527 45.874 13.5856C45.9057 13.6185 45.9691 13.6514 46.0008 13.6843C46.0325 13.7172 46.0642 13.7172 46.0959 13.7501C46.1593 13.7829 46.191 13.8158 46.2545 13.8487C46.2862 13.8816 46.3179 13.8816 46.3179 13.9145C46.3813 13.9474 46.4447 14.0132 46.5081 14.0461C46.5081 14.0461 46.5398 14.0461 46.5398 14.079C46.6032 14.1119 46.6983 14.1777 46.7617 14.2106C46.7934 14.2106 46.8251 14.2435 46.8251 14.2435C46.8885 14.2764 46.9519 14.3093 46.9836 14.3422C47.0153 14.3422 47.047 14.3751 47.0787 14.3751C47.1421 14.4079 47.1738 14.4408 47.2372 14.4408C47.2689 14.4408 47.3007 14.4737 47.3324 14.4737C47.3958 14.5066 47.4275 14.5066 47.4909 14.5395C47.5226 14.5395 47.5543 14.5724 47.586 14.5724C47.6494 14.6053 47.7128 14.6053 47.7762 14.6382C47.8079 14.6382 47.8079 14.6382 47.8396 14.6711C47.9347 14.704 48.0298 14.7369 48.0932 14.7369C48.1249 14.7369 48.1249 14.7369 48.1566 14.7369C48.22 14.7698 48.2834 14.7698 48.3786 14.8027C48.4103 14.8027 48.442 14.8027 48.4737 14.8356C48.5371 14.8356 48.6005 14.8685 48.6639 14.8685C48.6956 14.8685 48.7273 14.8685 48.759 14.9014C48.8224 14.9014 48.8858 14.9343 48.9492 14.9343C48.9809 14.9343 49.0126 14.9343 49.0443 14.9343C49.1077 14.9343 49.1711 14.9343 49.2345 14.9343C49.2662 14.9343 49.2979 14.9343 49.3296 14.9343C49.4247 14.9343 49.5199 14.9343 49.615 14.9343C49.7101 14.9343 49.8052 14.9343 49.9003 14.9343C49.932 14.9343 49.9637 14.9343 49.9954 14.9343C50.0588 14.9343 50.1222 14.9343 50.1856 14.9343C50.2173 14.9343 50.249 14.9343 50.2807 14.9343C50.3441 14.9343 50.4075 14.9343 50.4709 14.9014C50.5026 14.9014 50.5343 14.9014 50.5661 14.8685C50.6295 14.8685 50.6929 14.8356 50.7563 14.8356C50.788 14.8356 50.8197 14.8356 50.8514 14.8027C50.9148 14.8027 51.0099 14.7698 51.0733 14.7369C51.105 14.7369 51.105 14.7369 51.1367 14.7369C51.2318 14.704 51.3269 14.6711 51.3903 14.6711C51.422 14.6711 51.422 14.6711 51.4537 14.6382C51.5171 14.6053 51.5805 14.6053 51.6439 14.5724C51.6756 14.5724 51.7074 14.5395 51.7391 14.5395C51.8025 14.5066 51.8659 14.5066 51.8976 14.4737C51.9293 14.4737 51.961 14.4408 51.9927 14.4408C52.0561 14.4079 52.0878 14.3751 52.1512 14.3751C52.1829 14.3751 52.2146 14.3422 52.2463 14.3422C52.3097 14.3093 52.3731 14.2764 52.4048 14.2435C52.4365 14.2435 52.4682 14.2106 52.4682 14.2106C52.5633 14.1777 52.6267 14.1119 52.6901 14.079C52.6901 14.079 52.7218 14.079 52.7218 14.0461C52.7853 14.0132 52.8487 13.9474 52.9121 13.9145C52.9438 13.8816 52.9755 13.8816 52.9755 13.8487C53.0389 13.8158 53.0706 13.7829 53.134 13.7501C53.1657 13.7172 53.1974 13.7172 53.2291 13.6843C53.2608 13.6514 53.3242 13.6185 53.3559 13.5856C53.3876 13.5527 53.4193 13.5527 53.451 13.5198C53.4827 13.4869 53.5461 13.454 53.5778 13.3882C53.6095 13.3553 53.6095 13.3553 53.6412 13.3224C53.7046 13.2566 53.768 13.2237 53.7997 13.1579L53.8314 13.1251C53.8949 13.0593 53.9583 12.9935 54.0217 12.9277C54.0534 12.8948 54.0534 12.8948 54.0851 12.8619C54.1168 12.829 54.1802 12.7632 54.2119 12.6974C54.2436 12.6645 54.2436 12.6316 54.2753 12.6316C54.307 12.5987 54.3387 12.5329 54.3704 12.5001C54.4021 12.4672 54.4021 12.4343 54.4338 12.4014C54.4655 12.3685 54.4972 12.3027 54.5289 12.2698C54.5606 12.2369 54.5606 12.204 54.5923 12.1711C54.624 12.1053 54.6557 12.0395 54.6874 12.0066C54.6874 11.9737 54.7191 11.9737 54.7191 11.9408C54.7508 11.8751 54.8142 11.7764 54.8459 11.7106C54.8459 11.6777 54.8776 11.6777 54.8776 11.6448C54.9093 11.579 54.941 11.5132 54.9727 11.4474C54.9727 11.4145 55.0045 11.3816 55.0045 11.3487C55.0362 11.2829 55.0679 11.2501 55.0679 11.1843C55.0679 11.1514 55.0996 11.1185 55.0996 11.0856V11.0527H51.4537C51.422 11.0856 51.3586 11.1185 51.3269 11.1843C51.2318 11.2501 51.1367 11.3487 51.0099 11.4145C51.0099 11.4145 51.0099 11.4145 50.9782 11.4145C50.9465 11.4474 50.8831 11.4803 50.8514 11.4803H50.8197C50.7246 11.5461 50.5978 11.579 50.4709 11.6448H50.4392C50.4075 11.6448 50.3441 11.6777 50.3124 11.6777H50.2807C50.2173 11.6777 50.1539 11.7106 50.0905 11.7106C50.0271 11.7106 49.9637 11.7435 49.9003 11.7435C49.8686 11.7435 49.8686 11.7435 49.8369 11.7435C49.8052 11.7435 49.7418 11.7435 49.7101 11.7435C49.6784 11.7435 49.6784 11.7435 49.6467 11.7435C49.5833 11.7435 49.5199 11.7435 49.4564 11.7435C49.393 11.7435 49.3296 11.7435 49.2662 11.7435C49.2345 11.7435 49.2345 11.7435 49.2028 11.7435C49.1711 11.7435 49.1077 11.7435 49.076 11.7435C49.0443 11.7435 49.0443 11.7435 49.0126 11.7435C48.9492 11.7435 48.8858 11.7106 48.8224 11.7106C48.759 11.7106 48.6956 11.6777 48.6322 11.6777H48.6005C48.5688 11.6777 48.5054 11.6448 48.4737 11.6448H48.442C48.3151 11.6119 48.22 11.5461 48.0932 11.4803H48.0615C47.9981 11.4474 47.9664 11.4145 47.9347 11.4145C47.9347 11.4145 47.9347 11.4145 47.903 11.4145C47.8079 11.3487 47.6811 11.2829 47.586 11.1843C47.5226 11.1514 47.4909 11.1185 47.4592 11.0527C47.3641 10.954 47.269 10.8553 47.1738 10.7566C47.047 10.5922 46.9202 10.4277 46.8251 10.2632C46.7617 10.1645 46.6983 10.0329 46.6666 9.90137H52.278H53.2925H55.4483C55.5117 9.50663 55.5751 9.079 55.5751 8.68426C55.5751 8.12505 55.5117 7.59874 55.3849 7.10532C55.3215 7.00663 55.3215 6.90795 55.2898 6.84216ZM47.047 6.74347C47.0787 6.71058 47.1104 6.64479 47.1738 6.61189C47.269 6.51321 47.3641 6.41453 47.4592 6.31584C47.4909 6.28295 47.5543 6.21716 47.586 6.18426C47.6811 6.11847 47.7762 6.01979 47.903 5.954C47.903 5.954 47.903 5.954 47.9347 5.954C47.9664 5.9211 48.0298 5.88821 48.0615 5.88821H48.0932C48.1883 5.82242 48.3151 5.78953 48.442 5.72374H48.4737C48.5054 5.72374 48.5688 5.69084 48.6005 5.69084H48.6322C48.6956 5.69084 48.759 5.65795 48.8224 5.65795C48.8858 5.65795 48.9492 5.62505 49.0126 5.62505C49.0443 5.62505 49.0443 5.62505 49.076 5.62505C49.1077 5.62505 49.1711 5.62505 49.2028 5.62505C49.2345 5.62505 49.2345 5.62505 49.2662 5.62505C49.3296 5.62505 49.393 5.62505 49.4564 5.62505C49.5199 5.62505 49.5833 5.62505 49.6467 5.62505C49.6784 5.62505 49.6784 5.62505 49.7101 5.62505C49.7418 5.62505 49.8052 5.62505 49.8369 5.62505C49.8686 5.62505 49.8686 5.62505 49.9003 5.62505C49.9637 5.62505 50.0271 5.65795 50.0905 5.65795C50.1539 5.65795 50.2173 5.69084 50.2807 5.69084H50.3124C50.3441 5.69084 50.4075 5.72374 50.4392 5.72374H50.4709C50.5978 5.75663 50.6929 5.82242 50.8197 5.88821H50.8514C50.9148 5.9211 50.9465 5.954 50.9782 5.954C50.9782 5.954 50.9782 5.954 51.0099 5.954C51.105 6.01979 51.2318 6.08558 51.3269 6.18426C51.3903 6.21716 51.422 6.25005 51.4537 6.31584C51.5488 6.41453 51.6439 6.51321 51.7391 6.61189C51.7708 6.64479 51.8025 6.71058 51.8659 6.74347H47.047Z" fill="white"/>
<path d="M63.9131 2.36816C60.5526 2.36816 57.8262 5.19711 57.8262 8.68395V14.9997H60.8697V8.68395C60.8697 6.94053 62.2329 5.52606 63.9131 5.52606C65.5934 5.52606 66.9566 6.94053 66.9566 8.68395V14.1445V14.9997H70.0001V8.68395C70.0001 5.19711 67.2736 2.36816 63.9131 2.36816Z" fill="white"/>
</svg>
